<svg xmlns="http://www.w3.org/2000/svg" version="1.1" xmlns:xlink="http://www.w3.org/1999/xlink" width="1000" height="1000"><style>
    #light-icon {
      display: inline;
    }
    #dark-icon {
      display: none;
    }

    @media (prefers-color-scheme: dark) {
      #light-icon {
        display: none;
      }
      #dark-icon {
        display: inline;
      }
    }
  </style><g id="light-icon"><svg xmlns="http://www.w3.org/2000/svg" version="1.1" xmlns:xlink="http://www.w3.org/1999/xlink" width="1000" height="1000"><g><g transform="matrix(7.8125,0,0,7.8125,0,0)"><svg xmlns="http://www.w3.org/2000/svg" version="1.1" xmlns:xlink="http://www.w3.org/1999/xlink" width="128" height="128"><svg width="128" height="128" viewBox="0 0 128 128" fill="none" xmlns="http://www.w3.org/2000/svg">
<path d="M17.3333 110.667V102.277L23.3839 96.2253V110.667H17.3333ZM39.1799 110.667V80.944L45.2306 74.892V110.667H39.1799ZM60.9746 110.667V74.892L67.0253 81.0773V110.667H60.9746ZM82.8199 110.667V81.0773L88.8719 75.0253V110.667H82.8199ZM104.616 110.667V59.6107L110.667 53.5587V110.667H104.616ZM17.3333 78.328V69.816L53.3333 33.98L74.6666 55.3133L110.667 19.2307V27.7947L74.6666 63.8773L53.3333 42.544L17.3333 78.328Z" fill="#6464A6"></path>
<path d="M16.3691 9.09961H21.8652C22.2004 9.09961 22.4854 9.19613 22.7236 9.38867L22.8223 9.47754C23.0779 9.72729 23.207 10.0461 23.207 10.4424V18.4961H19.3242L17.8906 19.9297L17.7197 20.0996H23.207V25.9961H18.835L17.0088 22.3018L16.9814 22.2461H12.4971L11.0635 23.6797L10.8926 23.8496H15.9336L17.792 27.5449L17.8193 27.5996H23.207V37.5576C23.207 37.9045 23.1082 38.192 22.9121 38.4258L22.8223 38.5225C22.565 38.7737 22.2482 38.9004 21.8652 38.9004H16.3691C16.1328 38.9003 15.9087 38.8415 15.6963 38.7227C15.538 38.6341 15.4093 38.521 15.3076 38.3848L15.2148 38.2402H15.2139L11.3662 31.3301H14.3213L16.2959 35.0469L16.3242 35.0996H20.7158V33.4961H17.2871L15.3115 29.7803L15.2832 29.7266H10.4922L7.60254 24.6621C7.53932 24.5479 7.49283 24.4363 7.46191 24.3281C7.43117 24.2204 7.41504 24.1112 7.41504 24C7.41504 24.0015 7.4152 23.9983 7.41699 23.9873C7.41866 23.9772 7.42185 23.9628 7.42578 23.9453C7.43363 23.9103 7.44551 23.8627 7.46191 23.8027C7.49442 23.684 7.54319 23.5188 7.6084 23.3066L10.4922 18.2539H15.2832L15.3115 18.2012L17.2871 14.4844H20.7158V12.8809H16.3242L16.2959 12.9336L14.3213 16.6504H11.3662L15.2139 9.76074L15.2148 9.75977C15.3258 9.55662 15.4852 9.3955 15.6963 9.27734C15.8556 9.18822 16.0217 9.13348 16.1943 9.11133L16.3691 9.09961ZM26.1543 9.09961H31.6309C31.867 9.09968 32.0905 9.15873 32.3027 9.27734C32.4611 9.36595 32.5907 9.47891 32.6924 9.61523L32.7852 9.75977V9.76074L36.6338 16.6504H33.6787L31.7041 12.9336L31.6758 12.8809H27.2842V14.4844H30.7129L32.6689 18.2002L32.6973 18.2539H37.5078L40.3945 23.3125V23.3135C40.459 23.4425 40.5068 23.5623 40.5381 23.6719C40.5688 23.7796 40.584 23.8888 40.584 24C40.5839 24.0012 40.5842 24.0054 40.583 24.0127C40.5814 24.0225 40.5781 24.0358 40.5742 24.0527C40.5664 24.0868 40.5545 24.133 40.5381 24.1914C40.5057 24.3067 40.4557 24.4665 40.3906 24.6719L37.5078 29.7266H32.6973L32.6689 29.7803L30.7129 33.4961H27.2842V35.0996H31.6758L31.7041 35.0469L33.6787 31.3301H36.6338L32.7852 38.2402C32.6742 38.4434 32.5139 38.6045 32.3027 38.7227C32.0905 38.8413 31.867 38.9003 31.6309 38.9004H26.1543C25.8069 38.9004 25.5189 38.803 25.2852 38.6113L25.1885 38.5234C24.9386 38.2738 24.8115 37.9546 24.8115 37.5576V27.5996H30.1807L30.208 27.5449L32.0664 23.8496H37.1064L35.5029 22.2461H31.0186L30.9912 22.3018L29.165 25.9961H24.8115V20.0996H30.2803L30.1094 19.9297L28.6758 18.4961H24.8115V10.4424C24.8115 10.0948 24.9087 9.80703 25.1006 9.57324L25.1885 9.47656C25.4069 9.25797 25.6784 9.13311 26.0088 9.10547L26.1543 9.09961Z" fill="#6464A6" stroke="white" stroke-width="0.2"></path>
</svg></svg></g></g></svg></g><g id="dark-icon"><svg xmlns="http://www.w3.org/2000/svg" version="1.1" xmlns:xlink="http://www.w3.org/1999/xlink" width="1000" height="1000"><g><g transform="matrix(7.8125,0,0,7.8125,0,0)"><svg xmlns="http://www.w3.org/2000/svg" version="1.1" xmlns:xlink="http://www.w3.org/1999/xlink" width="128" height="128"><svg width="128" height="128" viewBox="0 0 128 128" fill="none" xmlns="http://www.w3.org/2000/svg">
<path d="M17.3333 110.667V102.277L23.3839 96.2253V110.667H17.3333ZM39.1799 110.667V80.944L45.2306 74.892V110.667H39.1799ZM60.9746 110.667V74.892L67.0253 81.0773V110.667H60.9746ZM82.8199 110.667V81.0773L88.8719 75.0253V110.667H82.8199ZM104.616 110.667V59.6107L110.667 53.5587V110.667H104.616ZM17.3333 78.328V69.816L53.3333 33.98L74.6666 55.3133L110.667 19.2307V27.7947L74.6666 63.8773L53.3333 42.544L17.3333 78.328Z" fill="white"></path>
<path d="M16.3691 9.09961H21.8652C22.2004 9.09961 22.4854 9.19613 22.7236 9.38867L22.8223 9.47754C23.0779 9.72729 23.207 10.0461 23.207 10.4424V18.4961H19.3242L17.8906 19.9297L17.7197 20.0996H23.207V25.9961H18.835L17.0088 22.3018L16.9814 22.2461H12.4971L11.0635 23.6797L10.8926 23.8496H15.9336L17.792 27.5449L17.8193 27.5996H23.207V37.5576C23.207 37.9045 23.1082 38.192 22.9121 38.4258L22.8223 38.5225C22.565 38.7737 22.2482 38.9004 21.8652 38.9004H16.3691C16.1328 38.9003 15.9087 38.8415 15.6963 38.7227C15.538 38.6341 15.4093 38.521 15.3076 38.3848L15.2148 38.2402H15.2139L11.3662 31.3301H14.3213L16.2959 35.0469L16.3242 35.0996H20.7158V33.4961H17.2871L15.3115 29.7803L15.2832 29.7266H10.4922L7.60254 24.6621C7.53932 24.5479 7.49283 24.4363 7.46191 24.3281C7.43117 24.2204 7.41504 24.1112 7.41504 24C7.41504 24.0015 7.4152 23.9983 7.41699 23.9873C7.41866 23.9772 7.42185 23.9628 7.42578 23.9453C7.43363 23.9103 7.44551 23.8627 7.46191 23.8027C7.49442 23.684 7.54319 23.5188 7.6084 23.3066L10.4922 18.2539H15.2832L15.3115 18.2012L17.2871 14.4844H20.7158V12.8809H16.3242L16.2959 12.9336L14.3213 16.6504H11.3662L15.2139 9.76074L15.2148 9.75977C15.3258 9.55662 15.4852 9.3955 15.6963 9.27734C15.8556 9.18822 16.0217 9.13348 16.1943 9.11133L16.3691 9.09961ZM26.1543 9.09961H31.6309C31.867 9.09968 32.0905 9.15873 32.3027 9.27734C32.4611 9.36595 32.5907 9.47891 32.6924 9.61523L32.7852 9.75977V9.76074L36.6338 16.6504H33.6787L31.7041 12.9336L31.6758 12.8809H27.2842V14.4844H30.7129L32.6689 18.2002L32.6973 18.2539H37.5078L40.3945 23.3125V23.3135C40.459 23.4425 40.5068 23.5623 40.5381 23.6719C40.5688 23.7796 40.584 23.8888 40.584 24C40.5839 24.0012 40.5842 24.0054 40.583 24.0127C40.5814 24.0225 40.5781 24.0358 40.5742 24.0527C40.5664 24.0868 40.5545 24.133 40.5381 24.1914C40.5057 24.3067 40.4557 24.4665 40.3906 24.6719L37.5078 29.7266H32.6973L32.6689 29.7803L30.7129 33.4961H27.2842V35.0996H31.6758L31.7041 35.0469L33.6787 31.3301H36.6338L32.7852 38.2402C32.6742 38.4434 32.5139 38.6045 32.3027 38.7227C32.0905 38.8413 31.867 38.9003 31.6309 38.9004H26.1543C25.8069 38.9004 25.5189 38.803 25.2852 38.6113L25.1885 38.5234C24.9386 38.2738 24.8115 37.9546 24.8115 37.5576V27.5996H30.1807L30.208 27.5449L32.0664 23.8496H37.1064L35.5029 22.2461H31.0186L30.9912 22.3018L29.165 25.9961H24.8115V20.0996H30.2803L30.1094 19.9297L28.6758 18.4961H24.8115V10.4424C24.8115 10.0948 24.9087 9.80703 25.1006 9.57324L25.1885 9.47656C25.4069 9.25797 25.6784 9.13311 26.0088 9.10547L26.1543 9.09961Z" fill="white" stroke="white" stroke-width="0.2"></path>
</svg></svg></g></g></svg></g></svg>