<svg xmlns="http://www.w3.org/2000/svg" version="1.1" xmlns:xlink="http://www.w3.org/1999/xlink" width="1000" height="1000"><style>
    #light-icon {
      display: inline;
    }
    #dark-icon {
      display: none;
    }

    @media (prefers-color-scheme: dark) {
      #light-icon {
        display: none;
      }
      #dark-icon {
        display: inline;
      }
    }
  </style><g id="light-icon"><svg xmlns="http://www.w3.org/2000/svg" version="1.1" xmlns:xlink="http://www.w3.org/1999/xlink" width="1000" height="1000"><g><g transform="matrix(7.8125,0,0,7.8125,0,0)"><svg xmlns="http://www.w3.org/2000/svg" version="1.1" xmlns:xlink="http://www.w3.org/1999/xlink" width="128" height="128"><svg width="128" height="128" viewBox="0 0 128 128" fill="none" xmlns="http://www.w3.org/2000/svg">
<path d="M17.3333 110.667V102.277L23.3839 96.2253V110.667H17.3333ZM39.1799 110.667V80.944L45.2306 74.892V110.667H39.1799ZM60.9746 110.667V74.892L67.0253 81.0773V110.667H60.9746ZM82.8199 110.667V81.0773L88.8719 75.0253V110.667H82.8199ZM104.616 110.667V59.6107L110.667 53.5587V110.667H104.616ZM17.3333 78.328V69.816L53.3333 33.98L74.6666 55.3133L110.667 19.2307V27.7947L74.6666 63.8773L53.3333 42.544L17.3333 78.328Z" fill="#0079C1"></path>
<path d="M16.3694 39C16.1154 39 15.8749 38.9365 15.6479 38.8095C15.4209 38.6825 15.2473 38.5088 15.1269 38.2885L11.1959 31.2305H14.3809L16.3844 35H20.6154V33.596H17.2269L15.2229 29.827H10.4344L7.51543 24.7115C7.44876 24.5912 7.39876 24.4727 7.36543 24.356C7.3321 24.2393 7.31543 24.1207 7.31543 24C7.31543 23.946 7.3821 23.7023 7.51543 23.269L10.4344 18.154H15.2229L17.2269 14.3845H20.6154V12.981H16.3844L14.3809 16.75H11.1959L15.1269 9.7115C15.2473 9.49117 15.4209 9.3175 15.6479 9.1905C15.8749 9.0635 16.1154 9 16.3694 9H21.8654C22.2731 9 22.6154 9.13533 22.8924 9.406C23.1691 9.67633 23.3074 10.0218 23.3074 10.4425V18.596H19.3654L17.9614 20H23.3074V26.096H18.7729L16.9194 22.346H12.5384L11.1344 23.75H15.9959L17.8809 27.5H23.3074V37.5575C23.3074 37.9782 23.1691 38.3237 22.8924 38.594C22.6154 38.8647 22.2731 39 21.8654 39H16.3694ZM26.1539 39C25.7333 39 25.3878 38.8647 25.1174 38.594C24.8468 38.3237 24.7114 37.9782 24.7114 37.5575V27.5H30.1189L32.0039 23.75H36.8654L35.4614 22.346H31.0804L29.2269 26.096H24.7114V20H30.0384L28.6344 18.596H24.7114V10.4425C24.7114 10.0218 24.8468 9.67633 25.1174 9.406C25.3878 9.13533 25.7333 9 26.1539 9H31.6304C31.8844 9 32.1249 9.0635 32.3519 9.1905C32.5789 9.3175 32.7526 9.49117 32.8729 9.7115L36.8039 16.75H33.6189L31.6154 12.981H27.3844V14.3845H30.7729L32.7574 18.154H37.5654L40.4844 23.269C40.5511 23.4023 40.6011 23.5273 40.6344 23.644C40.6678 23.7607 40.6844 23.8793 40.6844 24C40.6844 24.054 40.6178 24.2912 40.4844 24.7115L37.5654 29.827H32.7574L30.7729 33.596H27.3844V35H31.6154L33.6189 31.2305H36.8039L32.8729 38.2885C32.7526 38.5088 32.5789 38.6825 32.3519 38.8095C32.1249 38.9365 31.8844 39 31.6304 39H26.1539Z" fill="#0079C1"></path>
</svg></svg></g></g></svg></g><g id="dark-icon"><svg xmlns="http://www.w3.org/2000/svg" version="1.1" xmlns:xlink="http://www.w3.org/1999/xlink" width="1000" height="1000"><g><g transform="matrix(7.8125,0,0,7.8125,0,0)"><svg xmlns="http://www.w3.org/2000/svg" version="1.1" xmlns:xlink="http://www.w3.org/1999/xlink" width="128" height="128"><svg width="128" height="128" viewBox="0 0 128 128" fill="none" xmlns="http://www.w3.org/2000/svg">
<path d="M17.3333 110.667V102.277L23.3839 96.2253V110.667H17.3333ZM39.1799 110.667V80.944L45.2306 74.892V110.667H39.1799ZM60.9746 110.667V74.892L67.0253 81.0773V110.667H60.9746ZM82.8199 110.667V81.0773L88.8719 75.0253V110.667H82.8199ZM104.616 110.667V59.6107L110.667 53.5587V110.667H104.616ZM17.3333 78.328V69.816L53.3333 33.98L74.6666 55.3133L110.667 19.2307V27.7947L74.6666 63.8773L53.3333 42.544L17.3333 78.328Z" fill="white"></path>
<path d="M16.3694 39C16.1154 39 15.8749 38.9365 15.6479 38.8095C15.4209 38.6825 15.2473 38.5088 15.1269 38.2885L11.1959 31.2305H14.3809L16.3844 35H20.6154V33.596H17.2269L15.2229 29.827H10.4344L7.51543 24.7115C7.44876 24.5912 7.39876 24.4727 7.36543 24.356C7.3321 24.2393 7.31543 24.1207 7.31543 24C7.31543 23.946 7.3821 23.7023 7.51543 23.269L10.4344 18.154H15.2229L17.2269 14.3845H20.6154V12.981H16.3844L14.3809 16.75H11.1959L15.1269 9.7115C15.2473 9.49117 15.4209 9.3175 15.6479 9.1905C15.8749 9.0635 16.1154 9 16.3694 9H21.8654C22.2731 9 22.6154 9.13533 22.8924 9.406C23.1691 9.67633 23.3074 10.0218 23.3074 10.4425V18.596H19.3654L17.9614 20H23.3074V26.096H18.7729L16.9194 22.346H12.5384L11.1344 23.75H15.9959L17.8809 27.5H23.3074V37.5575C23.3074 37.9782 23.1691 38.3237 22.8924 38.594C22.6154 38.8647 22.2731 39 21.8654 39H16.3694ZM26.1539 39C25.7333 39 25.3878 38.8647 25.1174 38.594C24.8468 38.3237 24.7114 37.9782 24.7114 37.5575V27.5H30.1189L32.0039 23.75H36.8654L35.4614 22.346H31.0804L29.2269 26.096H24.7114V20H30.0384L28.6344 18.596H24.7114V10.4425C24.7114 10.0218 24.8468 9.67633 25.1174 9.406C25.3878 9.13533 25.7333 9 26.1539 9H31.6304C31.8844 9 32.1249 9.0635 32.3519 9.1905C32.5789 9.3175 32.7526 9.49117 32.8729 9.7115L36.8039 16.75H33.6189L31.6154 12.981H27.3844V14.3845H30.7729L32.7574 18.154H37.5654L40.4844 23.269C40.5511 23.4023 40.6011 23.5273 40.6344 23.644C40.6678 23.7607 40.6844 23.8793 40.6844 24C40.6844 24.054 40.6178 24.2912 40.4844 24.7115L37.5654 29.827H32.7574L30.7729 33.596H27.3844V35H31.6154L33.6189 31.2305H36.8039L32.8729 38.2885C32.7526 38.5088 32.5789 38.6825 32.3519 38.8095C32.1249 38.9365 31.8844 39 31.6304 39H26.1539Z" fill="white"></path>
</svg></svg></g></g></svg></g></svg>